# xmcd
#
# Track frame offsets:
#	150
#	12061
#	23817
#	35368
#	46262
#	60016
#	73305
#	86986
#	101947
#	118024
#	132992
#	145815
#	159360
#	169726
#	184963
#	200385
#	211188
#	225147
#	239653
#	252280
#	268076
#	278357
#	289903
#	302783
#	316449
#
# Disc length: 4395 seconds
#
# Revision: 1
# Processed by: cddbd v1.5.2PL0 Copyright (c) Steve Scherf et al.
# Submitted via: audiograbber 1.83.01
#
DISCID=63112919
DTITLE=Various Artist - Classic Field Recordings- Landmark Country Sessions from a Los
DTITLE=t Era, CD D
DYEAR=1900
DGENRE=Country
TTITLE0=Blind Fiddler - Slim Girl
TTITLE1=Blind Fiddler - Maggie
TTITLE2=Jack Pierce - Soap Box Blue
TTITLE3=Jack Pierce - Rabbit Blues
TTITLE4=Lester "Pete" Bivins - Big Fat Girl
TTITLE5=Lester "Pete" Bivins - Knocking on the Hen House Door
TTITLE6=Lester "Pete" Bivins - Minor Blues
TTITLE7=Lester "Pete" Bivins - Married Life Blues
TTITLE8=Lester "Pete" Bivins - Back in My Home Town
TTITLE9=Lester "Pete" Bivins - Home With Mother and Dad in the West
TTITLE10=Gwen Foster - How Many Biscuits Can I Eat?
TTITLE11=Gwen Foster - Side-Line Blues
TTITLE12=Louisiana Lou - With My Banjo on My Knee
TTITLE13=Louisiana Lou - A Package of Love Letters
TTITLE14=Louisiana Lou - The Export Gal
TTITLE15=Louisiana Lou - Sinful to Flirt
TTITLE16=Louisiana Lou - Go 'Long Mule
TTITLE17=The Southern Melody Boys (Odus and Woodrow) - If You See My Saviour
TTITLE18=The Southern Melody Boys (Odus and Woodrow) - Tribulation Days
TTITLE19=The Southern Melody Boys (Odus and Woodrow) - Down in Baltimore
TTITLE20=The Southern Melody Boys (Odus and Woodrow) - Wind the Little Ball of Ya
TTITLE20=rn
TTITLE21=The Southern Melody Boys (Odus and Woodrow) - Sweet Locust Blossoms
TTITLE22=The Southern Melody Boys (Odus and Woodrow) - I'll Remember You, Love, i
TTITLE22=n My Prayer
TTITLE23=Rouse Brothers - My Family Circle (Will the Circle be Unbroken)
TTITLE24=Rouse Brothers - Orange Blossom Special
EXTD=
EXTT0=
EXTT1=
EXTT2=
EXTT3=
EXTT4=
EXTT5=
EXTT6=
EXTT7=
EXTT8=
EXTT9=
EXTT10=
EXTT11=
EXTT12=
EXTT13=
EXTT14=
EXTT15=
EXTT16=
EXTT17=
EXTT18=
EXTT19=
EXTT20=
EXTT21=
EXTT22=
EXTT23=
EXTT24=
PLAYORDER=
